<svg width="32" height="33" viewBox="0 0 32 33" fill="none" xmlns="http://www.w3.org/2000/svg">
<g clip-path="url(#clip0_3796_1233)">
<path id="passkey-icon" d="M28.9368 0.890252C28.8158 0.763253 28.6708 0.662254 28.5098 0.593254C28.3488 0.524255 28.1758 0.489255 28.0008 0.490255H4.00105C3.82605 0.489255 3.65205 0.524255 3.49105 0.593254C3.33005 0.662254 3.18506 0.763253 3.06506 0.890252C2.93806 1.01025 2.83706 1.15625 2.76806 1.31725C2.69906 1.47825 2.66406 1.65124 2.66506 1.82624V17.8261C2.67006 19.0441 2.90606 20.2501 3.36105 21.3801C3.79405 22.4951 4.37604 23.5471 5.09104 24.506C5.82603 25.467 6.64902 26.356 7.54902 27.164C8.38401 27.93 9.264 28.647 10.183 29.31C10.983 29.878 11.823 30.416 12.703 30.924C13.583 31.432 14.204 31.775 14.567 31.954C14.9329 32.134 15.2289 32.276 15.4489 32.37C15.6209 32.453 15.8099 32.494 16.0009 32.49C16.1889 32.493 16.3749 32.449 16.5429 32.364C16.7669 32.266 17.0589 32.128 17.4289 31.948C17.7989 31.768 18.4289 31.424 19.2929 30.918C20.1569 30.412 21.0069 29.872 21.8129 29.304C22.7329 28.64 23.6139 27.924 24.4509 27.158C25.3519 26.351 26.1748 25.461 26.9088 24.5C27.6228 23.54 28.2048 22.4891 28.6388 21.3741C29.0948 20.2441 29.3308 19.0381 29.3348 17.8201V1.82024C29.3358 1.64625 29.3008 1.47425 29.2318 1.31425C29.1628 1.15425 29.0628 1.01025 28.9368 0.890252ZM25.8428 17.9721C25.8428 23.772 16.0009 28.754 16.0009 28.754V3.91822H25.8428V17.9721Z"/>
</g>
<defs>
<clipPath id="clip0_3796_1233">
<rect width="32" height="32" fill="white" transform="translate(0 0.490234)"/>
</clipPath>
</defs>
</svg>
