<svg width="197" height="30" viewBox="0 0 197 30" fill="none" xmlns="http://www.w3.org/2000/svg">
<path id="passkey-icon" fill-rule="evenodd" clip-rule="evenodd" d="M46.5269 7.47279C48.7992 7.47279 50.5665 8.34341 51.8649 10.1572C53.1633 11.9347 53.8125 14.3652 53.8125 17.4486C53.8125 20.6409 53.1633 23.1076 51.8288 24.8489C50.4943 26.6264 48.691 27.4607 46.4187 27.4607C44.1465 27.4607 42.4152 26.6626 41.1168 24.994H40.7561L40.0709 26.6989C39.9626 26.9528 39.7102 27.0979 39.4577 27.0979H36.5723C36.2116 27.0979 35.9231 26.8077 35.9231 26.445V0.943168C35.9231 0.580411 36.2116 0.290206 36.5723 0.290206H40.4676C40.8283 0.290206 41.1168 0.580411 41.1168 0.943168V6.52963C41.1168 7.32769 41.0447 8.59734 40.9004 10.3386H41.1168C42.307 8.45224 44.1465 7.47279 46.5269 7.47279ZM44.8678 11.717C43.6055 11.717 42.6316 12.1161 42.0185 12.9141C41.4414 13.7122 41.1168 15.0544 41.1168 16.8682V17.4486C41.1168 19.5163 41.4053 21.0036 42.0185 21.8742C42.6316 22.7449 43.6055 23.2164 44.9399 23.2164C45.9859 23.2164 46.8876 22.7086 47.5007 21.6929C48.1139 20.7134 48.4385 19.2261 48.4385 17.3761C48.4385 15.4897 48.1139 14.075 47.5007 13.1318C46.8515 12.1886 45.9498 11.717 44.8678 11.717ZM62.3966 27.1342H58.5013C58.1406 27.1342 57.8521 26.844 57.8521 26.4813V8.52479C57.8521 8.16203 58.1406 7.87183 58.5013 7.87183H62.3966C62.7572 7.87183 63.0458 8.16203 63.0458 8.52479V26.445C63.0818 26.7715 62.7572 27.1342 62.3966 27.1342ZM76.6432 23.2527C77.4006 23.2527 78.3023 23.1076 79.3843 22.8174C79.6728 22.7449 79.9253 22.9625 79.9253 23.2527V26.2636C79.9253 26.445 79.8171 26.5901 79.6728 26.6626C78.4465 27.1705 76.8956 27.4244 75.1644 27.4244C73.0725 27.4244 71.5577 26.9166 70.6199 25.8283C69.6822 24.7763 69.1772 23.1802 69.1772 21.0762V11.8259H67.1214C66.8689 11.8259 66.6886 11.6445 66.6886 11.3906V9.68561C66.6886 9.64934 66.7246 9.61306 66.7246 9.57678L69.574 7.87183L70.9806 4.09915C71.0527 3.91778 71.197 3.80895 71.3773 3.80895H73.9742C74.2267 3.80895 74.407 3.99033 74.407 4.24426V7.9081H79.5646C79.6728 7.9081 79.781 8.01693 79.781 8.12576V11.3906C79.781 11.6445 79.6007 11.8259 79.3482 11.8259H74.4431V21.0399C74.4431 21.7654 74.6595 22.3458 75.0562 22.6723C75.4169 23.0713 75.994 23.2527 76.6432 23.2527ZM100.917 27.1342C100.412 27.1342 100.015 26.8077 99.7984 26.3362L95.9753 14.6191C95.7228 13.7848 95.3982 12.5151 94.9654 10.8827H94.8572L94.4965 12.1886L93.7391 14.6554L89.8078 26.3724C89.6635 26.844 89.2307 27.1342 88.7257 27.1342C88.2208 27.1342 87.788 26.8077 87.6437 26.2999L82.8468 9.43168C82.7025 8.92382 83.0992 8.37969 83.6763 8.37969H83.7845C84.1452 8.37969 84.4698 8.63362 84.578 8.99637L87.3912 19.2624C88.0765 21.9468 88.5454 23.9057 88.7618 25.2116H88.87C89.5192 22.5272 90.0242 20.7497 90.3488 19.8428L93.9916 9.1052C94.1358 8.66989 94.5326 8.37969 95.0375 8.37969C95.5064 8.37969 95.9031 8.66989 96.0474 9.1052L99.4378 19.7703C100.267 22.4909 100.772 24.2322 100.953 25.1391H101.061C101.169 24.4135 101.602 22.3821 102.431 19.1173L105.136 8.99637C105.245 8.63362 105.569 8.37969 105.93 8.37969C106.471 8.37969 106.868 8.88755 106.723 9.43168L102.179 26.2999C102.035 26.8077 101.602 27.1342 101.061 27.1342H100.917ZM122.341 27.1342C122.016 27.1342 121.727 26.8803 121.691 26.5538L121.367 24.1596H121.186C120.249 25.3567 119.311 26.2273 118.301 26.7352C117.327 27.243 116.137 27.4607 114.802 27.4607C112.963 27.4607 111.556 26.9891 110.546 26.046C109.645 25.2116 109.14 24.0871 109.068 22.6723C108.923 20.786 109.717 18.9722 111.232 17.9202C112.783 16.9045 114.947 16.2878 117.868 16.2878L121.403 16.179V14.9456C121.403 13.1318 121.042 11.8259 120.285 10.919C119.527 10.0121 118.409 9.57678 116.822 9.57678C115.307 9.57678 113.793 9.93954 112.206 10.7013C111.809 10.8827 111.34 10.7013 111.16 10.3023C110.979 9.90326 111.16 9.43168 111.556 9.28658C113.36 8.56106 115.127 8.16203 116.93 8.16203C118.986 8.16203 120.501 8.70617 121.547 9.79444C122.557 10.8464 123.062 12.5514 123.062 14.7642V26.5538C123.026 26.7715 122.701 27.1342 122.341 27.1342ZM114.875 25.9008C116.894 25.9008 118.445 25.3204 119.563 24.1959C120.717 23.0713 121.295 21.4389 121.295 19.4438V17.63L118.049 17.7751C115.416 17.8839 113.576 18.3192 112.422 19.0085C111.304 19.6977 110.727 20.8223 110.727 22.2733C110.727 23.4341 111.088 24.3773 111.773 25.0302C112.566 25.5744 113.576 25.9008 114.875 25.9008ZM136.226 8.01693C136.767 8.01693 137.308 8.0532 137.922 8.12576C138.391 8.19831 138.679 8.63362 138.607 9.06892C138.535 9.50423 138.102 9.75816 137.669 9.68561C137.128 9.61306 136.587 9.54051 136.046 9.54051C134.459 9.54051 133.161 10.2297 132.151 11.5719C131.141 12.9141 130.636 14.6554 130.636 16.6868V26.1911C130.636 26.6626 130.275 27.0254 129.806 27.0254C129.338 27.0254 128.977 26.6626 128.977 26.1911V9.14148C128.977 8.74244 129.302 8.41596 129.698 8.41596C130.095 8.41596 130.42 8.70617 130.42 9.1052L130.564 11.7896H130.672C131.43 10.4111 132.259 9.43168 133.125 8.88755C133.954 8.30713 135 8.01693 136.226 8.01693ZM148.922 8.01693C150.257 8.01693 151.447 8.27086 152.421 8.74244C153.431 9.21403 154.296 10.0846 155.054 11.2817H155.162C155.09 9.79444 155.054 8.41596 155.054 7.03749V1.12455C155.054 0.652963 155.414 0.290206 155.883 0.290206C156.352 0.290206 156.713 0.652963 156.713 1.12455V26.4813C156.713 26.8077 156.46 27.0617 156.136 27.0617C155.847 27.0617 155.595 26.844 155.559 26.5175L155.198 24.1596H155.054C153.647 26.2999 151.591 27.3519 148.958 27.3519C146.361 27.3519 144.45 26.5538 143.043 24.9214C141.709 23.289 140.987 20.9674 140.987 17.8839C140.987 14.6554 141.637 12.1886 143.007 10.4474C144.378 8.88755 146.325 8.01693 148.922 8.01693ZM148.922 9.57678C146.866 9.57678 145.352 10.3023 144.306 11.7533C143.296 13.1681 142.791 15.2358 142.791 17.9927C142.791 23.289 144.847 25.9371 148.958 25.9371C151.086 25.9371 152.601 25.3204 153.575 24.0871C154.585 22.8537 155.054 20.8223 155.054 17.9927V17.7025C155.054 14.8005 154.585 12.7328 153.575 11.4994C152.637 10.1935 151.086 9.57678 148.922 9.57678ZM170.527 27.4607C167.821 27.4607 165.73 26.6264 164.179 24.9214C162.664 23.2527 161.906 20.8948 161.906 17.8839C161.906 14.873 162.628 12.4788 164.107 10.7013C165.585 8.88755 167.533 7.98065 170.022 7.98065C172.186 7.98065 173.953 8.74244 175.179 10.266C176.478 11.7896 177.091 13.8936 177.091 16.5417V17.9202H163.674C163.71 20.4958 164.287 22.4547 165.477 23.8331C166.667 25.2116 168.326 25.8283 170.527 25.8283C171.572 25.8283 172.546 25.7557 173.34 25.6106C173.917 25.5018 174.602 25.3204 175.432 25.0302C175.901 24.8489 176.406 25.2116 176.406 25.7195C176.406 26.0097 176.225 26.2999 175.937 26.4087C175.071 26.7715 174.241 26.9891 173.484 27.1342C172.582 27.3882 171.609 27.4607 170.527 27.4607ZM170.022 9.54051C168.218 9.54051 166.776 10.1209 165.694 11.318C164.611 12.4788 163.998 14.2201 163.782 16.4329H175.324C175.324 14.2926 174.855 12.5514 173.917 11.3543C172.979 10.1572 171.681 9.54051 170.022 9.54051ZM196.134 27.1342C195.665 27.1342 195.305 26.7715 195.305 26.2999V14.9456C195.305 13.0593 194.908 11.6808 194.151 10.8464C193.321 10.0121 192.131 9.54051 190.472 9.54051C188.236 9.54051 186.613 10.0846 185.603 11.2455C184.593 12.37 184.016 14.2201 184.016 16.7231V26.2273C184.016 26.6989 183.655 27.0617 183.186 27.0617C182.717 27.0617 182.357 26.6989 182.357 26.2273V9.14148C182.357 8.70617 182.681 8.37969 183.114 8.37969C183.511 8.37969 183.799 8.66989 183.871 9.03265L184.088 10.919H184.196C185.422 8.9601 187.55 7.98065 190.652 7.98065C194.872 7.98065 197 10.266 197 14.8368V26.2273C196.964 26.7352 196.567 27.1342 196.134 27.1342ZM60.485 0C58.7898 0 57.4193 1.30593 57.4193 2.93833V3.22854C57.4193 4.82467 58.8259 6.16687 60.485 6.16687C62.1441 6.16687 63.5507 4.82467 63.5507 3.22854V2.97461C63.5507 1.30593 62.1441 0 60.485 0ZM24.3094 0.652963C24.0569 0.399033 23.7684 0.290206 23.4438 0.290206H1.22629C0.865617 0.290206 0.613145 0.399033 0.360674 0.652963C0.108202 0.906892 0 1.23337 0 1.52358V16.3966C0 17.4849 0.216404 18.6094 0.649213 19.6977C1.08202 20.786 1.58696 21.7654 2.23618 22.5998C2.84932 23.4341 3.6428 24.3047 4.50842 25.0665C5.37404 25.8646 6.20359 26.5538 6.961 27.0617C7.68235 27.5695 8.5119 28.0774 9.30538 28.549C10.0989 29.0206 10.6759 29.347 11.0005 29.4921C11.3252 29.6735 11.6137 29.7823 11.794 29.8912C11.9383 29.9637 12.1186 30 12.299 30C12.4793 30 12.6596 29.9637 12.8039 29.8912C13.0203 29.8186 13.2728 29.6735 13.6335 29.4921C13.9581 29.3108 14.5352 29.0206 15.3286 28.549C16.1221 28.0774 16.9156 27.5695 17.673 27.0617C18.3944 26.5538 19.26 25.8646 20.1256 25.0665C20.9912 24.2684 21.7486 23.4704 22.3978 22.5998C23.011 21.7654 23.552 20.786 23.9848 19.6977C24.4176 18.6094 24.634 17.4849 24.634 16.3966V1.52358C24.6701 1.23337 24.5619 0.906892 24.3094 0.652963ZM21.4601 16.5417C21.4601 21.9468 12.335 26.5901 12.335 26.5901V3.48247H21.4601C21.4601 3.48247 21.4601 11.1729 21.4601 16.5417Z"/>
</svg>
